<svg xmlns="http://www.w3.org/2000/svg" width="3200" height="2200" viewBox="0 0 3200 2200">
<defs>
  <linearGradient id="grass" x2="0" y2="1"><stop stop-color="#6fae55"/><stop offset="1" stop-color="#3f7f43"/></linearGradient>
  <linearGradient id="water" x2="0" y2="1"><stop stop-color="#3d9fc4"/><stop offset="1" stop-color="#17658c"/></linearGradient>
  <linearGradient id="sand" x2="0" y2="1"><stop stop-color="#d8b65d"/><stop offset="1" stop-color="#a9823d"/></linearGradient>
  <linearGradient id="snow" x2="0" y2="1"><stop stop-color="#eaf5f7"/><stop offset="1" stop-color="#8faec0"/></linearGradient>
  <filter id="shadow"><feDropShadow dx="0" dy="8" stdDeviation="8" flood-opacity=".35"/></filter>
</defs>
<rect width="3200" height="2200" fill="url(#water)"/>
<!-- Main continent -->
<path d="M240 520 Q450 220 820 300 Q1100 120 1400 300 Q1720 140 2010 330 Q2320 220 2700 520 Q2950 760 2800 1040 Q3050 1310 2750 1580 Q2500 1800 2150 1690 Q1900 2010 1500 1840 Q1190 2050 900 1840 Q540 1940 360 1630 Q120 1400 300 1110 Q80 850 240 520Z" fill="url(#grass)" stroke="#234c35" stroke-width="28"/>
<!-- Mountains -->
<path d="M260 520 L520 150 L680 470 L900 100 L1100 520 L900 650 L480 650Z" fill="url(#snow)" stroke="#627d8a" stroke-width="12"/>
<path d="M1900 360 L2150 80 L2310 400 L2470 150 L2680 510 L2500 690 L2050 650Z" fill="#5b4b3e" stroke="#3d302a" stroke-width="14"/>
<!-- Volcano -->
<path d="M1960 760 L2140 300 L2310 760Z" fill="#4a3930" stroke="#2f2925" stroke-width="16"/>
<path d="M2060 470 Q2140 520 2220 470 L2180 650 L2110 650Z" fill="#e65f28"/>
<!-- Desert -->
<path d="M2350 680 Q2680 560 2880 760 Q3000 980 2800 1180 Q2560 1280 2320 1110 Q2220 880 2350 680Z" fill="url(#sand)"/>
<!-- Lake -->
<path d="M1300 760 Q1530 620 1780 780 Q1850 970 1690 1110 Q1450 1190 1280 1030 Q1210 890 1300 760Z" fill="#2b91b3" stroke="#145b73" stroke-width="18"/>
<!-- Forest patches -->
<g fill="#285f3b" opacity=".9">
 <circle cx="650" cy="950" r="190"/><circle cx="900" cy="1150" r="230"/><circle cx="700" cy="1400" r="210"/>
 <circle cx="1750" cy="500" r="190"/><circle cx="1500" cy="550" r="150"/><circle cx="2050" cy="900" r="170"/>
</g>
<!-- Roads -->
<g fill="none" stroke="#c9aa70" stroke-width="34" stroke-linecap="round" stroke-dasharray="80 22">
 <path d="M1580 1510 Q1500 1250 1560 930 Q1500 680 1350 500"/>
 <path d="M1580 1510 Q1150 1370 850 1450 Q600 1510 420 1600"/>
 <path d="M1580 1510 Q1900 1390 2180 1100 Q2400 900 2700 920"/>
 <path d="M1580 1510 Q1900 1580 2300 1580"/>
</g>
<!-- Towns -->
<g filter="url(#shadow)">
 <rect x="1270" y="420" width="270" height="110" rx="22" fill="#214c62"/><text x="1405" y="490" text-anchor="middle" fill="white" font-size="46" font-family="sans-serif">北境城鎮</text>
 <rect x="2320" y="1270" width="260" height="110" rx="22" fill="#214c62"/><text x="2450" y="1340" text-anchor="middle" fill="white" font-size="44" font-family="sans-serif">海灣小鎮</text>
</g>
<!-- Spawn -->
<g filter="url(#shadow)"><circle cx="1580" cy="1510" r="120" fill="#ffd83d" opacity=".25"/><circle cx="1580" cy="1510" r="70" fill="#e9f6ff" stroke="#1684d8" stroke-width="18"/><path d="M1580 1440 L1640 1500 L1615 1500 L1615 1570 L1545 1570 L1545 1500 L1520 1500Z" fill="#1684d8"/><text x="1580" y="1665" text-anchor="middle" fill="#fff" font-size="48" font-family="sans-serif" font-weight="bold">出生點・新手平原</text></g>
<!-- Monster reserved zones -->
<g fill="none" stroke="#d83434" stroke-width="14" stroke-dasharray="30 18" opacity=".95">
 <circle cx="720" cy="1100" r="210"/><circle cx="1020" cy="1550" r="180"/><circle cx="2180" cy="780" r="210"/><circle cx="2550" cy="1000" r="190"/><circle cx="2200" cy="1450" r="220"/><circle cx="550" cy="620" r="150"/>
</g>
<g fill="#8d2020" font-family="sans-serif" font-size="42" font-weight="bold" text-anchor="middle">
 <text x="720" y="1100">怪物區域 A</text><text x="1020" y="1550">怪物區域 B</text><text x="2180" y="780">怪物區域 C</text><text x="2550" y="1000">怪物區域 D</text><text x="2200" y="1450">怪物區域 E</text><text x="550" y="620">怪物區域 F</text>
</g>
<!-- Dungeon reserved areas -->
<g fill="#4d2a70" opacity=".95"><rect x="850" y="420" width="180" height="130" rx="25"/><rect x="1750" y="1170" width="180" height="130" rx="25"/></g>
<g fill="white" font-family="sans-serif" font-size="38" text-anchor="middle"><text x="940" y="500">副本預留</text><text x="1840" y="1250">副本預留</text></g>
<!-- Resource / quest placeholders -->
<g font-family="sans-serif" font-size="38" text-anchor="middle" font-weight="bold">
 <g fill="#39b96b"><circle cx="1320" cy="1260" r="32"/><text x="1320" y="1325" fill="#173c27">資源點</text></g>
 <g fill="#f3b51b"><circle cx="1880" cy="620" r="32"/><text x="1880" y="685" fill="#5a4210">任務點</text></g>
 <g fill="#39b96b"><circle cx="1150" cy="900" r="32"/><text x="1150" y="965" fill="#173c27">資源點</text></g>
</g>
<!-- Title / legend -->
<rect x="80" y="80" width="640" height="190" rx="30" fill="#132b2b" opacity=".9"/>
<text x="120" y="155" fill="white" font-size="58" font-family="sans-serif" font-weight="bold">冒險大陸</text>
<text x="120" y="215" fill="#c9e5d0" font-size="34" font-family="sans-serif">開放世界・Lv.1–50+</text>
<g transform="translate(2570 180)"><path d="M0 -100 L25 -20 L100 0 L25 25 L0 100 L-25 25 L-100 0 L-25 -20Z" fill="#f4e5b4" stroke="#3b3226" stroke-width="8"/><text y="155" text-anchor="middle" fill="white" font-size="38" font-family="sans-serif">N</text></g>
<!-- Unexplored island -->
<path d="M2480 1640 Q2700 1540 2910 1680 Q2980 1830 2790 1910 Q2570 1940 2450 1810Z" fill="#53686b" stroke="#314144" stroke-width="18" stroke-dasharray="30 18"/>
<text x="2680" y="1760" text-anchor="middle" fill="white" font-size="38" font-family="sans-serif">未探索區域</text>
</svg>